<svg xmlns="http://www.w3.org/2000/svg" viewBox="0 0 343.824 198.374"><defs><style>.cls-2{fill:#fff}.cls-5{fill:#fffe2b}</style></defs><path style="fill:#0047ba" d="M343.824 37.142H67V0L0 68.075l67 68.075V99.385h276.824V37.142z"/><path class="cls-2" d="M-2397.131-2062.018h-5.473l4.707-27.196h5.473zM-2386.727-2062.018h-5.305l4.987-28.69h5.286zM-2354.656-2073.132h-10.423l-1.942 11.114h-5.473l4.725-27.196h17.222l-.803 4.539h-11.73l-1.233 7.023h10.46zM-2346.755-2062.018h-5.305l3.511-20.21h5.305zm-1.177-25.347a2.631 2.631 0 0 1 .822-2.073 2.891 2.891 0 0 1 2.073-.822 2.906 2.906 0 0 1 2.073.729 2.62 2.62 0 0 1 .916 1.98 2.706 2.706 0 0 1-.776 2.017 2.906 2.906 0 0 1-2.12.896 2.954 2.954 0 0 1-2.064-.71 2.608 2.608 0 0 1-.924-2.017zM-2331.607-2087.197l-.878 4.969h3.362l-.691 3.96h-3.362l-1.719 10.123a2.574 2.574 0 0 0 .15 1.457q.261.505 1.27.542.299.019 1.606-.093l-.373 4.128a8.86 8.86 0 0 1-3.026.43 4.747 4.747 0 0 1-3.867-1.626 5.871 5.871 0 0 1-1.046-4.296l1.738-10.665h-2.858l.69-3.96h2.859l.859-4.968zM-2321.24-2082.247l-.449 2.391a7.272 7.272 0 0 1 5.884-2.746 4.848 4.848 0 0 1 4.221 2.092 8.43 8.43 0 0 1 .99 5.641l-2.13 12.851h-5.267l2.167-12.907a6.043 6.043 0 0 0 .038-1.326 2.14 2.14 0 0 0-2.391-1.961 4.533 4.533 0 0 0-3.717 1.924l-2.522 14.27h-5.267l3.511-20.21zM-2298.995-2061.644a8.792 8.792 0 0 1-4.697-1.299 7.87 7.87 0 0 1-3.054-3.511 9.787 9.787 0 0 1-.785-4.922l.056-.747a13.066 13.066 0 0 1 1.719-5.417 10.38 10.38 0 0 1 3.698-3.8 9.15 9.15 0 0 1 5.006-1.262 6.991 6.991 0 0 1 5.912 2.872 9.843 9.843 0 0 1 1.522 7.08l-.299 2.301h-12.384a4.337 4.337 0 0 0 .953 3.138 3.636 3.636 0 0 0 2.802 1.215 6.462 6.462 0 0 0 5.043-2.242l2.41 2.989a7.495 7.495 0 0 1-3.288 2.68 10.75 10.75 0 0 1-4.614.925zm1.681-16.606a3.743 3.743 0 0 0-2.587.916 8.04 8.04 0 0 0-2.026 3.306h7.247l.112-.486a4.95 4.95 0 0 0 .019-1.42 2.711 2.711 0 0 0-.915-1.69 2.87 2.87 0 0 0-1.85-.626zM-2276.636-2067.715q.298-1.494-2.074-2.167l-1.7-.43q-6.033-1.662-5.865-5.864a5.804 5.804 0 0 1 2.531-4.66 9.424 9.424 0 0 1 5.875-1.766 8.454 8.454 0 0 1 5.529 1.812 5.969 5.969 0 0 1 2.148 4.726l-5.23-.019a2.303 2.303 0 0 0-2.578-2.634 3.71 3.71 0 0 0-2.139.617 2.538 2.538 0 0 0-1.111 1.662q-.28 1.495 2.26 2.11l.747.169a15.027 15.027 0 0 1 3.941 1.41 5.948 5.948 0 0 1 2.102 1.97 4.877 4.877 0 0 1 .681 2.821 5.383 5.383 0 0 1-1.242 3.362 7.603 7.603 0 0 1-3.25 2.223 11.322 11.322 0 0 1-4.342.729 8.532 8.532 0 0 1-5.604-1.934 6.233 6.233 0 0 1-2.279-4.903l4.969.038q.074 2.895 3.1 2.932a4.411 4.411 0 0 0 2.4-.598 2.361 2.361 0 0 0 1.13-1.606zM-2257.379-2067.715q.299-1.494-2.073-2.167l-1.7-.43q-6.033-1.662-5.865-5.864a5.804 5.804 0 0 1 2.53-4.66 9.424 9.424 0 0 1 5.875-1.766 8.454 8.454 0 0 1 5.53 1.812 5.969 5.969 0 0 1 2.147 4.726l-5.23-.019a2.303 2.303 0 0 0-2.578-2.633 3.71 3.71 0 0 0-2.138.616 2.538 2.538 0 0 0-1.112 1.662q-.28 1.495 2.26 2.11l.748.169a15.027 15.027 0 0 1 3.94 1.41 5.948 5.948 0 0 1 2.102 1.97 4.877 4.877 0 0 1 .682 2.821 5.383 5.383 0 0 1-1.242 3.362 7.603 7.603 0 0 1-3.25 2.223 11.322 11.322 0 0 1-4.343.729 8.532 8.532 0 0 1-5.604-1.934 6.233 6.233 0 0 1-2.278-4.903l4.968.038q.075 2.895 3.1 2.932a4.411 4.411 0 0 0 2.401-.598 2.361 2.361 0 0 0 1.13-1.606z" transform="translate(2451.862 2144.438)"/><path style="fill:red" d="m343.824 130.299-67-68.075v37.161H0v62.244h276.824v36.745l67-68.075z"/><path class="cls-2" d="M-2358.61-2003.76h12.17l-.826 4.746h-17.942l4.983-28.675h5.77zM-2331.846-1999.014a5.75 5.75 0 0 1-.216-1.93 7.217 7.217 0 0 1-5.436 2.324 6.54 6.54 0 0 1-4.638-1.822 5.511 5.511 0 0 1-1.723-4.401 6.37 6.37 0 0 1 2.924-5.347 13.275 13.275 0 0 1 7.474-1.861l2.6.039.276-1.28a4.446 4.446 0 0 0 .059-1.24 2.133 2.133 0 0 0-.7-1.448 2.408 2.408 0 0 0-1.585-.542 3.392 3.392 0 0 0-2.206.64 3.102 3.102 0 0 0-1.162 1.96l-5.573.02a6.194 6.194 0 0 1 2.806-4.954 10.869 10.869 0 0 1 6.588-1.86 7.857 7.857 0 0 1 5.672 2.156 6.309 6.309 0 0 1 1.713 5.347l-1.634 10.201-.099 1.26a6.08 6.08 0 0 0 .335 2.364l-.02.374zm-4.273-3.92a5.086 5.086 0 0 0 4.194-2.087l.69-3.682-1.93-.02a5.392 5.392 0 0 0-4.431 1.87 3.257 3.257 0 0 0-.61 1.596 1.89 1.89 0 0 0 .442 1.684 2.245 2.245 0 0 0 1.645.64zM-2312.703-1999.014l4.983-28.675 8.94.02q4.983.02 7.484 2.029a6.272 6.272 0 0 1 2.265 5.652q-.276 4.352-5.022 6.361a4.817 4.817 0 0 1 2.659 2.216 6.63 6.63 0 0 1 .807 3.83 8.296 8.296 0 0 1-3.18 6.312q-2.905 2.255-7.927 2.255zm7.956-12.486-1.359 7.74 4.55.02a5.867 5.867 0 0 0 3.564-1.054 4.18 4.18 0 0 0 1.714-2.846 3.533 3.533 0 0 0-.483-2.767 3.198 3.198 0 0 0-2.55-1.073zm.71-4.175 3.918.04a6.24 6.24 0 0 0 3.575-1.025 3.97 3.97 0 0 0 1.664-2.737q.492-3.466-3.643-3.486l-4.254-.02zM-2282.02-1999.014h-5.593l3.703-21.309h5.593zm-1.24-26.725a2.774 2.774 0 0 1 .866-2.186 3.048 3.048 0 0 1 2.186-.866 3.064 3.064 0 0 1 2.186.768 2.762 2.762 0 0 1 .965 2.087 2.853 2.853 0 0 1-.817 2.127 3.064 3.064 0 0 1-2.235.945 3.114 3.114 0 0 1-2.177-.748 2.75 2.75 0 0 1-.974-2.127zM-2267.978-2003.19a3.648 3.648 0 0 0 2.56-.836 4.114 4.114 0 0 0 1.34-2.334l5.219-.02a7.655 7.655 0 0 1-1.409 4.038 8.555 8.555 0 0 1-3.387 2.796 9.697 9.697 0 0 1-4.46.946 7.874 7.874 0 0 1-6.145-2.679 9.995 9.995 0 0 1-2.186-6.972l.059-1.083.02-.216a13.321 13.321 0 0 1 3.505-8.242 9.481 9.481 0 0 1 7.346-2.925 7.681 7.681 0 0 1 5.721 2.354 8.313 8.313 0 0 1 2.078 5.996h-5.18a4.362 4.362 0 0 0-.748-2.698 2.843 2.843 0 0 0-2.245-1.063q-3.978-.118-4.825 5.81a19.617 19.617 0 0 0-.217 3.623q.197 3.447 2.954 3.506zM-2250.844-1999.014h-5.593l3.702-21.309h5.593zm-1.24-26.725a2.774 2.774 0 0 1 .866-2.186 3.048 3.048 0 0 1 2.186-.866 3.064 3.064 0 0 1 2.186.768 2.762 2.762 0 0 1 .965 2.087 2.853 2.853 0 0 1-.817 2.127 3.064 3.064 0 0 1-2.236.945 3.114 3.114 0 0 1-2.176-.748 2.75 2.75 0 0 1-.975-2.127zM-2236.802-2003.19a3.648 3.648 0 0 0 2.56-.836 4.114 4.114 0 0 0 1.34-2.334l5.218-.02a7.655 7.655 0 0 1-1.408 4.038 8.555 8.555 0 0 1-3.387 2.796 9.697 9.697 0 0 1-4.46.946 7.874 7.874 0 0 1-6.145-2.679 9.995 9.995 0 0 1-2.186-6.972l.059-1.083.02-.216a13.321 13.321 0 0 1 3.505-8.242 9.481 9.481 0 0 1 7.346-2.925 7.681 7.681 0 0 1 5.72 2.354 8.313 8.313 0 0 1 2.079 5.996h-5.18a4.362 4.362 0 0 0-.748-2.698 2.843 2.843 0 0 0-2.245-1.063q-3.979-.118-4.826 5.81a19.617 19.617 0 0 0-.216 3.623q.197 3.447 2.954 3.506zM-2219.668-1999.014h-5.593l5.258-30.25h5.573zM-2204.839-1998.62a9.27 9.27 0 0 1-4.953-1.369 8.298 8.298 0 0 1-3.22-3.702 10.319 10.319 0 0 1-.827-5.19l.06-.787a13.776 13.776 0 0 1 1.811-5.712 10.944 10.944 0 0 1 3.9-4.008 9.648 9.648 0 0 1 5.278-1.329 7.371 7.371 0 0 1 6.233 3.028 10.378 10.378 0 0 1 1.605 7.466l-.315 2.425h-13.057a4.573 4.573 0 0 0 1.004 3.31 3.834 3.834 0 0 0 2.954 1.28 6.814 6.814 0 0 0 5.317-2.364l2.541 3.15a7.903 7.903 0 0 1-3.466 2.827 11.335 11.335 0 0 1-4.865.975zm1.773-17.508a3.946 3.946 0 0 0-2.728.965 8.478 8.478 0 0 0-2.137 3.486h7.642l.118-.512a5.22 5.22 0 0 0 .02-1.497 2.859 2.859 0 0 0-.965-1.782 3.025 3.025 0 0 0-1.95-.66zM-2182.348-2025.562l-.926 5.239h3.545l-.728 4.175h-3.545l-1.812 10.674a2.714 2.714 0 0 0 .157 1.536q.276.532 1.34.572.315.02 1.693-.099l-.394 4.353a9.341 9.341 0 0 1-3.19.453 5.005 5.005 0 0 1-4.077-1.714 6.19 6.19 0 0 1-1.103-4.53l1.832-11.245h-3.013l.729-4.175h3.013l.906-5.239zM-2168.936-2025.562l-.926 5.239h3.545l-.729 4.175h-3.545l-1.811 10.674a2.714 2.714 0 0 0 .157 1.536q.276.532 1.34.572.314.02 1.693-.099l-.394 4.353a9.341 9.341 0 0 1-3.19.453 5.005 5.005 0 0 1-4.077-1.714 6.19 6.19 0 0 1-1.103-4.53l1.832-11.245h-3.013l.728-4.175h3.013l.906-5.239zM-2154.461-1999.014a5.75 5.75 0 0 1-.217-1.93 7.217 7.217 0 0 1-5.435 2.324 6.54 6.54 0 0 1-4.638-1.822 5.511 5.511 0 0 1-1.724-4.401 6.37 6.37 0 0 1 2.925-5.347 13.275 13.275 0 0 1 7.474-1.861l2.6.039.275-1.28a4.446 4.446 0 0 0 .06-1.24 2.133 2.133 0 0 0-.7-1.448 2.408 2.408 0 0 0-1.585-.542 3.392 3.392 0 0 0-2.206.64 3.102 3.102 0 0 0-1.162 1.96l-5.573.02a6.194 6.194 0 0 1 2.806-4.954 10.869 10.869 0 0 1 6.588-1.86 7.857 7.857 0 0 1 5.672 2.156 6.309 6.309 0 0 1 1.713 5.347l-1.635 10.201-.098 1.26a6.08 6.08 0 0 0 .335 2.364l-.02.374zm-4.274-3.92a5.086 5.086 0 0 0 4.195-2.087l.69-3.682-1.93-.02a5.392 5.392 0 0 0-4.432 1.87 3.257 3.257 0 0 0-.61 1.596 1.89 1.89 0 0 0 .443 1.684 2.245 2.245 0 0 0 1.644.64zM-2190.439-2060.459a.727.727 0 0 0-.54-.636l-2.784-.73a.727.727 0 0 1-.371-.234l-12.068-14.306a2.275 2.275 0 0 1-.486-.99l-.254-1.186a2.276 2.276 0 0 0-.53-1.042l-6.503-7.258a5.904 5.904 0 0 1-.813-2.156 5.934 5.934 0 0 1 .22-2.802l1.722-2.416a1.027 1.027 0 0 1 1.11-.43l7.442 1.95.205.085.895.51a1.17 1.17 0 0 0 .75.217h2.002a.685.685 0 0 0 .686-.685v-.564a.685.685 0 0 0-.71-.685l-2.728.07-.19-.042-7.961-3.977a2.413 2.413 0 0 0-1.094-.263h-.649a2.412 2.412 0 0 0-1.431.471l-7.696 5.675-.187-.833v-3.726a2.333 2.333 0 0 0-.064-.54l-.096-.404a2.334 2.334 0 0 0-1.257-1.562l-.623-.3a2.334 2.334 0 0 0-1.317-.21l-1.815.238a2.334 2.334 0 0 0-1.177.51l-.966.794a2.334 2.334 0 0 0-.852 1.803v3.522l1.75 3.125 3.083-1.167.792 1.75-5.121 5.39a.64.64 0 0 1-.926.002l-4.578-4.767.042-.75-.243-1.249a1.114 1.114 0 0 0-.202-.456l-.513-.683a1.114 1.114 0 0 0-.891-.445h-.219a1.114 1.114 0 0 0-.751.291l-.157.143a1.114 1.114 0 0 0-.334 1.077l.314 1.34a1.114 1.114 0 0 0 .857.836l.11.023a1.114 1.114 0 0 1 .736.533l4.276 7.39a2.001 2.001 0 0 0 1.612.995l.361.021a2 2 0 0 0 1.163-.289l7.464-4.548 6.656 6.032a.59.59 0 0 1 .24.406.605.605 0 0 1-.208.5l-6.625 5.375a2.534 2.534 0 0 0-.271 2.292 2.491 2.491 0 0 0 1.583 1.395l13.762 1.087a.462.462 0 0 1 .421.524l-.766 5.566a.662.662 0 0 0 .274.671.68.68 0 0 0 .892-.202l3.5-6.583 7.625 6.64.191.264 2.913 6.82a.727.727 0 0 0 .668.443h.556a.727.727 0 0 0 .724-.794zm-25.31-10.792 4.189-2.831a.122.122 0 0 1 .145.006l6.33 5.113a.122.122 0 0 1-.103.215l-10.518-2.283a.122.122 0 0 1-.043-.22z" transform="translate(2451.862 2144.438)"/><path class="cls-5" d="M-2399.778-2013.8a5.31 5.31 0 0 0-2.886-2.389l-8.375-3.75a.725.725 0 0 1-.374-.31c-.236-.43.07-1.187.832-1.815l7.302-4.49a.85.85 0 0 1 .95.041l4.012 2.982a1.766 1.766 0 0 0 .903.343l11.875 1.02a.799.799 0 0 0 .786-.464c.128-.401-.276-1.017-1.011-.984l-7.767-1.87-.965-.443a3.871 3.871 0 0 1-1.353-1.034l-1.379-1.647a3.874 3.874 0 0 1-.821-1.698l-.619-2.984a1.58 1.58 0 0 0-1.505-1.26 24.868 24.868 0 0 0-2.158.03c-1.967.112-11.243.879-16.75 8.125-1.694 2.228-2.143 3.41-2.172 4.384a7.194 7.194 0 0 0 2.464 5.095s3.14 2.904 12.265 5a1.097 1.097 0 0 1 .692.413.992.992 0 0 1 .126.65c-.083.829-1.781 12.378-1.917 14.583a.811.811 0 0 0 .271.77c.281.145.845-.103 1.146-.77l6.75-13.167a5.415 5.415 0 0 0-.322-4.362z" transform="translate(2451.862 2144.438)"/><path class="cls-5" d="M-2423.414-2015.856a14.25 14.25 0 0 0-14.25 14.25 14.25 14.25 0 0 0 14.25 14.25 14.25 14.25 0 0 0 14.25-14.25 14.25 14.25 0 0 0-14.25-14.25zm0 25.89a11.64 11.64 0 0 1-11.64-11.64 11.64 11.64 0 0 1 11.64-11.64 11.64 11.64 0 0 1 11.64 11.64 11.64 11.64 0 0 1-11.64 11.64zM-2386.414-2015.856a14.25 14.25 0 0 0-14.25 14.25 14.25 14.25 0 0 0 14.25 14.25 14.25 14.25 0 0 0 14.25-14.25 14.25 14.25 0 0 0-14.25-14.25zm0 25.89a11.64 11.64 0 0 1-11.64-11.64 11.64 11.64 0 0 1 11.64-11.64 11.64 11.64 0 0 1 11.64 11.64 11.64 11.64 0 0 1-11.64 11.64zM-2390.276-2032.702c2.002-2.001 2.254-4.994.564-6.684-1.69-1.69-4.683-1.438-6.685.563-2.001 2.002-2.253 4.995-.563 6.685s4.683 1.438 6.684-.564z" transform="translate(2451.862 2144.438)"/><path class="cls-2" d="m-2128.641-2092.941-2.824-.006-1.483 8.531h1.717l.545-3.123h1.395l1.007 3.123h1.828v-.094l-1.2-3.463a2.68 2.68 0 0 0 1.874-2.443 2.113 2.113 0 0 0-.676-1.857 3.217 3.217 0 0 0-2.183-.668zm.6 3.624a1.79 1.79 0 0 1-1.122.366l-1.277-.012.445-2.56 1.465.005a1.082 1.082 0 0 1 .838.346 1.105 1.105 0 0 1 .182.89 1.45 1.45 0 0 1-.53.965z" transform="translate(2451.862 2144.438)"/><path class="cls-2" d="M-2129.36-2099.55a10.868 10.868 0 0 0-10.868 10.868 10.868 10.868 0 0 0 10.868 10.868 10.868 10.868 0 0 0 10.868-10.868 10.868 10.868 0 0 0-10.868-10.867zm0 19.746a8.878 8.878 0 0 1-8.878-8.878 8.878 8.878 0 0 1 8.878-8.877 8.878 8.878 0 0 1 8.878 8.877 8.878 8.878 0 0 1-8.878 8.878z" transform="translate(2451.862 2144.438)"/></svg>